<?xml version="1.0" standalone="no"?>
<!DOCTYPE svg PUBLIC "-//W3C//DTD SVG 20010904//EN"
 "http://www.w3.org/TR/2001/REC-SVG-20010904/DTD/svg10.dtd">
<svg version="1.0" xmlns="http://www.w3.org/2000/svg"
 width="598.000000pt" height="958.000000pt" viewBox="0 0 598.000000 958.000000"
 preserveAspectRatio="xMidYMid meet">

<g transform="translate(0.000000,958.000000) scale(0.100000,-0.100000)"
fill="#000000" stroke="none">
<path d="M4532 9445 c-17 -91 -71 -253 -117 -349 -88 -185 -258 -386 -430
-507 -44 -31 -375 -226 -735 -434 -360 -207 -689 -401 -731 -431 -264 -190
-413 -411 -475 -704 -12 -59 -17 -159 -20 -460 l-4 -385 24 100 c91 381 279
659 581 862 33 22 330 194 660 383 714 409 757 434 860 515 207 161 321 341
376 590 19 90 22 137 26 460 6 420 4 461 -15 360z"/>
<path d="M4532 8355 c-17 -91 -71 -253 -117 -349 -88 -185 -258 -386 -430
-507 -44 -31 -375 -226 -735 -434 -360 -207 -693 -402 -739 -433 -168 -113
-308 -266 -382 -418 -87 -179 -109 -347 -108 -814 l0 -315 24 100 c30 131 57
210 110 322 92 196 250 383 429 510 48 34 360 218 694 409 715 409 762 437
867 519 207 161 321 341 376 590 19 90 22 137 26 460 6 420 4 461 -15 360z"/>
<path d="M4532 7256 c-16 -89 -66 -242 -108 -335 -86 -188 -274 -411 -444
-527 -41 -28 -289 -174 -550 -324 -261 -150 -524 -305 -585 -344 -422 -277
-696 -619 -787 -983 -31 -124 -31 -352 1 -468 24 -89 83 -220 132 -293 47 -68
164 -187 235 -238 122 -87 303 -160 439 -178 49 -6 49 -6 -20 17 -151 50 -256
117 -358 228 -125 134 -187 297 -187 489 0 256 119 483 343 653 39 30 364 222
722 427 357 205 683 395 725 424 94 64 244 212 295 291 51 77 100 192 125 289
32 127 41 271 38 615 -3 293 -4 317 -16 257z"/>
<path d="M799 4808 c-20 -145 -17 -445 5 -588 150 -999 917 -1750 1921 -1881
115 -15 415 -15 525 0 353 48 674 166 950 348 584 386 950 1019 989 1713 7
129 -1 348 -17 455 l-7 50 -119 3 -119 3 6 -29 c38 -190 35 -541 -7 -739 -83
-391 -263 -729 -535 -1003 -379 -380 -865 -582 -1401 -581 -324 0 -589 61
-875 201 -582 286 -981 834 -1082 1485 -27 176 -20 537 13 648 5 15 -5 17
-114 17 l-120 0 -13 -102z"/>
<path d="M1465 4823 c-23 -121 -30 -345 -16 -468 65 -556 423 -1034 939 -1253
403 -171 888 -158 1277 35 177 88 299 177 441 325 209 217 338 466 406 780 29
137 30 434 1 573 l-18 90 -108 3 c-59 1 -107 1 -107 0 0 -2 9 -46 21 -98 28
-134 35 -338 16 -465 -47 -303 -201 -597 -415 -795 -243 -225 -530 -344 -862
-356 -242 -10 -432 31 -645 136 -388 192 -660 561 -731 989 -26 162 -11 437
31 572 6 18 -1 19 -103 19 l-110 0 -17 -87z"/>
<path d="M3390 1814 c-86 -10 -193 -26 -206 -31 -12 -4 -14 -137 -14 -869 l0
-864 120 0 120 0 0 325 0 325 150 0 c581 0 840 173 840 560 0 165 -38 267
-135 366 -74 75 -170 126 -304 161 -87 23 -118 26 -316 28 -121 2 -236 1 -255
-1z m405 -214 c209 -30 318 -114 344 -265 26 -150 -20 -275 -128 -344 -83 -54
-180 -73 -403 -78 l-198 -6 0 346 0 346 38 4 c78 8 280 6 347 -3z"/>
<path d="M4880 1809 c-47 -5 -109 -14 -138 -20 l-52 -10 2 -852 3 -852 65 -12
c36 -6 144 -17 240 -23 341 -22 615 20 767 119 141 91 205 218 205 404 -1 138
-27 214 -102 289 -55 55 -180 128 -220 128 -8 0 9 14 39 31 142 82 212 218
198 389 -16 190 -147 329 -362 384 -138 35 -432 46 -645 25z m435 -199 c122
-18 192 -47 251 -104 44 -44 54 -59 64 -108 21 -104 -12 -196 -91 -254 -79
-58 -225 -84 -476 -84 l-123 0 0 274 0 275 38 4 c78 8 270 6 337 -3z m163
-764 c87 -22 133 -48 179 -100 51 -58 67 -114 61 -211 -4 -60 -11 -84 -34
-122 -55 -89 -153 -140 -309 -163 -76 -10 -376 -13 -412 -4 l-23 6 0 310 0
310 238 -5 c168 -4 255 -10 300 -21z"/>
<path d="M2 1178 c4 -607 4 -625 26 -702 67 -241 201 -378 434 -443 88 -24
317 -24 408 0 173 46 315 155 383 297 74 151 71 123 75 833 l3 637 -121 0
-120 0 0 -574 c0 -634 -3 -677 -60 -793 -38 -76 -110 -144 -188 -175 -48 -19
-75 -23 -177 -23 -109 0 -125 2 -177 27 -73 34 -153 108 -185 171 -50 100 -53
136 -53 775 l0 592 -126 0 -125 0 3 -622z"/>
<path d="M1740 925 l0 -875 570 0 571 0 -3 103 -3 102 -442 3 -443 2 0 305 0
305 365 0 365 0 0 100 0 100 -365 0 -365 0 0 265 0 265 410 0 410 0 0 100 0
100 -535 0 -535 0 0 -875z"/>
</g>
</svg>
